<svg xmlns="http://www.w3.org/2000/svg" width="330" height="210" viewBox="0 0 330 210" style="font-family:-apple-system,sans-serif;background:#fff">
<!-- top wire -->
<line x1="50" y1="50" x2="280" y2="50" stroke="#374151" stroke-width="2.5"/>
<!-- bottom wire -->
<line x1="50" y1="170" x2="280" y2="170" stroke="#374151" stroke-width="2.5"/>
<!-- left vertical -->
<line x1="50" y1="50" x2="50" y2="80" stroke="#374151" stroke-width="2.5"/>
<line x1="50" y1="140" x2="50" y2="170" stroke="#374151" stroke-width="2.5"/>
<!-- right vertical -->
<line x1="280" y1="50" x2="280" y2="170" stroke="#374151" stroke-width="2.5"/>
<!-- battery -->
<line x1="35" y1="90" x2="65" y2="90" stroke="#374151" stroke-width="3"/>
<line x1="42" y1="105" x2="58" y2="105" stroke="#374151" stroke-width="2"/>
<line x1="50" y1="80" x2="50" y2="90" stroke="#374151" stroke-width="2.5"/>
<line x1="50" y1="105" x2="50" y2="140" stroke="#374151" stroke-width="2.5"/>
<text x="72" y="100" font-size="13" fill="#374151" font-weight="bold">12V</text>
<text x="20" y="90" font-size="10" fill="#374151">+</text>
<text x="20" y="110" font-size="12" fill="#374151">−</text>
<!-- R1 -->
<rect x="100" y="38" width="60" height="24" fill="#fff" stroke="#374151" stroke-width="2" rx="4"/>
<text x="130" y="54" text-anchor="middle" font-size="12" fill="#4f46e5" font-weight="bold">3 Ω</text>
<text x="130" y="30" text-anchor="middle" font-size="11" fill="#374151">R₁</text>
<!-- R2 -->
<rect x="180" y="38" width="60" height="24" fill="#fff" stroke="#374151" stroke-width="2" rx="4"/>
<text x="210" y="54" text-anchor="middle" font-size="12" fill="#4f46e5" font-weight="bold">5 Ω</text>
<text x="210" y="30" text-anchor="middle" font-size="11" fill="#374151">R₂</text>
<!-- current arrow -->
<line x1="110" y1="170" x2="160" y2="170" stroke="#4f46e5" stroke-width="2"/>
<polygon points="160,170 150,165 150,175" fill="#4f46e5"/>
<text x="135" y="188" text-anchor="middle" font-size="11" fill="#4f46e5">I →</text>

</svg>