<svg xmlns="http://www.w3.org/2000/svg" width="310" height="275" viewBox="0 0 310 275" style="font-family:-apple-system,sans-serif;background:#fff">
<!-- axes -->
<line x1="50" y1="220" x2="50" y2="20" stroke="#374151" stroke-width="2"/>
<line x1="50" y1="220" x2="280" y2="220" stroke="#374151" stroke-width="2"/>
<polygon points="50,20 44,36 56,36" fill="#374151"/>
<polygon points="280,220 264,214 264,226" fill="#374151"/>
<text x="45" y="15" text-anchor="middle" font-size="13" fill="#374151">V</text>
<text x="290" y="224" text-anchor="middle" font-size="13" fill="#374151">I</text>
<line x1="90" y1="216" x2="90" y2="224" stroke="#374151" stroke-width="1.5"/>
<text x="90" y="236" text-anchor="middle" font-size="11" fill="#6b7280">1</text>
<line x1="130" y1="216" x2="130" y2="224" stroke="#374151" stroke-width="1.5"/>
<text x="130" y="236" text-anchor="middle" font-size="11" fill="#6b7280">2</text>
<line x1="170" y1="216" x2="170" y2="224" stroke="#374151" stroke-width="1.5"/>
<text x="170" y="236" text-anchor="middle" font-size="11" fill="#6b7280">3</text>
<line x1="210" y1="216" x2="210" y2="224" stroke="#374151" stroke-width="1.5"/>
<text x="210" y="236" text-anchor="middle" font-size="11" fill="#6b7280">4</text>
<line x1="46" y1="180" x2="54" y2="180" stroke="#374151" stroke-width="1.5"/>
<text x="40" y="184" text-anchor="middle" font-size="11" fill="#6b7280">1</text>
<line x1="46" y1="140" x2="54" y2="140" stroke="#374151" stroke-width="1.5"/>
<text x="40" y="144" text-anchor="middle" font-size="11" fill="#6b7280">2</text>
<line x1="46" y1="100" x2="54" y2="100" stroke="#374151" stroke-width="1.5"/>
<text x="40" y="104" text-anchor="middle" font-size="11" fill="#6b7280">3</text>
<line x1="46" y1="60" x2="54" y2="60" stroke="#374151" stroke-width="1.5"/>
<text x="40" y="64" text-anchor="middle" font-size="11" fill="#6b7280">4</text>
<line x1="50" y1="220" x2="242" y2="60" stroke="#4f46e5" stroke-width="2.5"/>
<text x="55" y="235" font-size="11" fill="#6b7280">O</text>
<text x="160" y="260" text-anchor="middle" font-size="12" fill="#374151">V = IR (constant R)</text>
</svg>